<svg width="17" height="16" viewBox="0 0 17 16" fill="none" xmlns="http://www.w3.org/2000/svg">
  <path d="M9.91016 4V11H7.91016V4H4.91016L8.91016 0L12.9102 4H9.91016Z" fill="white" />
  <path
    d="M15.9107 16H1.91069C1.62369 16 1.35069 15.877 1.16069 15.662C0.970687 15.447 0.882687 15.161 0.917687 14.876L1.91769 6.876C1.98069 6.375 2.40669 6 2.91069 6H5.91069V8H3.79369L3.04369 14H14.7777L14.0277 8H11.9107V6H14.9107C15.4147 6 15.8407 6.375 15.9027 6.876L16.9027 14.876C16.9387 15.161 16.8497 15.447 16.6597 15.662C16.4707 15.877 16.1977 16 15.9107 16Z"
    fill="white" />
</svg>